#define begin_width 21
#define begin_height 21
static unsigned char begin_bits[] = {
   0x00, 0x00, 0x00, 0x00, 0x00, 0x00, 0x0c, 0x00, 0x03, 0x34, 0x00, 0x03,
   0x44, 0x00, 0x03, 0x84, 0x01, 0x03, 0x04, 0x02, 0x03, 0x04, 0x0c, 0x03,
   0x04, 0x10, 0x03, 0x04, 0x60, 0x03, 0x04, 0x80, 0x03, 0x04, 0x60, 0x03,
   0x04, 0x10, 0x03, 0x04, 0x0c, 0x03, 0x04, 0x02, 0x03, 0x84, 0x01, 0x03,
   0x44, 0x00, 0x03, 0x34, 0x00, 0x03, 0x0c, 0x00, 0x03, 0x00, 0x00, 0x00,
   0x00, 0x00, 0x00};
