#define circle_width 21
#define circle_height 21
static char circle_bits[] = {
   0x00, 0x00, 0x00, 0x00, 0x04, 0x00, 0xc0, 0x7b, 0x00, 0x20, 0x80, 0x00,
   0x10, 0x00, 0x01, 0x08, 0x00, 0x02, 0x04, 0x00, 0x04, 0x04, 0x00, 0x04,
   0x04, 0x00, 0x04, 0x04, 0x00, 0x04, 0x02, 0x00, 0x08, 0x04, 0x00, 0x04,
   0x04, 0x00, 0x04, 0x04, 0x00, 0x04, 0x04, 0x00, 0x04, 0x08, 0x00, 0x02,
   0x10, 0x00, 0x01, 0x20, 0x80, 0x00, 0xc0, 0x7b, 0x00, 0x00, 0x04, 0x00,
   0x00, 0x00, 0x00};
