#define downarrow_width 16
#define downarrow_height 16
#define downarrow_x_hot 15
#define downarrow_y_hot 0
static unsigned char downarrow_bits[] = {
   0x00, 0x00, 0x00, 0x00, 0xf0, 0x0f, 0x10, 0x18, 0x10, 0x18, 0x10, 0x18,
   0x10, 0x18, 0x1c, 0x78, 0x04, 0x60, 0x08, 0x30, 0x10, 0x18, 0x20, 0x0c,
   0x40, 0x06, 0x80, 0x03, 0x00, 0x00, 0x00, 0x00};
