#define end_width 21
#define end_height 21
static unsigned char end_bits[] = {
   0x00, 0x00, 0x00, 0x00, 0x00, 0x00, 0x18, 0x00, 0x06, 0x18, 0x80, 0x05,
   0x18, 0x40, 0x04, 0x18, 0x30, 0x04, 0x18, 0x08, 0x04, 0x18, 0x06, 0x04,
   0x18, 0x01, 0x04, 0xd8, 0x00, 0x04, 0x38, 0x00, 0x04, 0xd8, 0x00, 0x04,
   0x18, 0x01, 0x04, 0x18, 0x06, 0x04, 0x18, 0x08, 0x04, 0x18, 0x30, 0x04,
   0x18, 0x40, 0x04, 0x18, 0x80, 0x05, 0x18, 0x00, 0x06, 0x00, 0x00, 0x00,
   0x00, 0x00, 0x00};
