#define few_width 21
#define few_height 21
static unsigned char few_bits[] = {
   0x00, 0x00, 0x00, 0x00, 0x00, 0x00, 0x84, 0x00, 0x00, 0x9c, 0x03, 0x00,
   0xa4, 0x04, 0x00, 0xc4, 0x18, 0x00, 0x84, 0x20, 0x00, 0x84, 0xc0, 0x00,
   0x84, 0x00, 0x01, 0x84, 0x00, 0x06, 0x84, 0x00, 0x08, 0x84, 0x00, 0x06,
   0x84, 0x00, 0x01, 0x84, 0xc0, 0x00, 0x84, 0x20, 0x00, 0xc4, 0x18, 0x00,
   0xa4, 0x04, 0x00, 0x9c, 0x03, 0x00, 0x84, 0x00, 0x00, 0x00, 0x00, 0x00,
   0x00, 0x00, 0x00};
