#define gray30_width 16
#define gray30_height 16
static char gray30_bits[] = {
   0x49, 0x92, 0x24, 0x49, 0x92, 0x24, 0x92, 0x24, 0x49, 0x92, 0x24, 0x49,
   0x24, 0x49, 0x92, 0x24, 0x49, 0x92, 0x49, 0x92, 0x24, 0x49, 0x92, 0x24,
   0x92, 0x24, 0x49, 0x92, 0x24, 0x49, 0x24, 0x49};
