#define home_width 16
#define home_height 16
#define home_x_hot 0
#define home_y_hot 15
static char home_bits[] = {
   0x00, 0x00, 0x80, 0x01, 0x40, 0x1a, 0x20, 0x1c, 0x10, 0x18, 0x08, 0x10,
   0x04, 0x20, 0xfe, 0x7f, 0x08, 0x10, 0x68, 0x10, 0x68, 0x16, 0x08, 0x16,
   0x08, 0x16, 0x08, 0x16, 0xf8, 0x1f, 0x00, 0x00};
