#define key_width 16
#define key_height 16
static unsigned char key_bits[] = {
   0xfc, 0x3f, 0x02, 0x40, 0x81, 0x83, 0x61, 0x8c, 0x11, 0x90, 0x11, 0x90,
   0x01, 0x90, 0x01, 0x88, 0x01, 0x84, 0x01, 0x82, 0x01, 0x81, 0xc1, 0x80,
   0x31, 0x80, 0xf1, 0x9f, 0x02, 0x40, 0xfc, 0x3f};
