#define key_width 16
#define key_height 16
static unsigned char key_bits[] = {
   0xfc, 0x3f, 0x02, 0x40, 0x41, 0x80, 0x41, 0x80, 0x21, 0x84, 0x21, 0x84,
   0x21, 0x84, 0x11, 0x84, 0x11, 0x84, 0xf9, 0xbf, 0x01, 0x84, 0x01, 0x84,
   0x01, 0x84, 0x01, 0x84, 0x02, 0x40, 0xfc, 0x3f};
