#define key_width 16
#define key_height 16
static unsigned char key_bits[] = {
   0xfc, 0x3f, 0x02, 0x40, 0xe1, 0x8f, 0x21, 0x80, 0x21, 0x80, 0x21, 0x80,
   0x21, 0x80, 0xa1, 0x87, 0x61, 0x88, 0x01, 0x90, 0x01, 0x90, 0x01, 0x90,
   0x61, 0x88, 0xc1, 0x87, 0x02, 0x40, 0xfc, 0x3f};
