#define key_width 16
#define key_height 16
static unsigned char key_bits[] = {
   0xfc, 0x3f, 0x02, 0x40, 0xc1, 0x83, 0x21, 0x84, 0x11, 0x88, 0x11, 0x88,
   0x11, 0x88, 0x21, 0x8c, 0xc1, 0x8b, 0x01, 0x88, 0x01, 0x88, 0x11, 0x88,
   0x21, 0x84, 0xc1, 0x83, 0x02, 0x40, 0xfc, 0x3f};
