#define key=_width 16
#define key=_height 16
static unsigned char key=_bits[] = {
   0xfc, 0x3f, 0x02, 0x40, 0x01, 0x80, 0x01, 0x80, 0x01, 0x80, 0xf1, 0x8f,
   0xf1, 0x8f, 0x01, 0x80, 0x01, 0x80, 0x01, 0x80, 0xf1, 0x8f, 0xf1, 0x8f,
   0x01, 0x80, 0x01, 0x80, 0x02, 0x40, 0xfc, 0x3f};
