#define keydot_width 16
#define keydot_height 16
static unsigned char keydot_bits[] = {
   0xfc, 0x3f, 0x02, 0x40, 0x01, 0x80, 0x01, 0x80, 0x01, 0x80, 0x01, 0x80,
   0x01, 0x80, 0x01, 0x80, 0x01, 0x80, 0x81, 0x81, 0x81, 0x81, 0x01, 0x80,
   0x01, 0x80, 0x01, 0x80, 0x02, 0x40, 0xfc, 0x3f};
