#define key_width 16
#define key_height 16
static unsigned char key_bits[] = {
   0xfc, 0x3f, 0x02, 0x40, 0x01, 0x80, 0x81, 0x81, 0x81, 0x81, 0x01, 0x80,
   0x01, 0x80, 0xf9, 0x9f, 0x01, 0x80, 0x01, 0x80, 0x81, 0x81, 0x81, 0x81,
   0x01, 0x80, 0x01, 0x80, 0x02, 0x40, 0xfc, 0x3f};
