#define keyend_width 16
#define keyend_height 16
static unsigned char keyend_bits[] = {
   0xfc, 0x3f, 0x02, 0x40, 0x3d, 0x80, 0x05, 0x80, 0x1d, 0x80, 0x45, 0x84,
   0xfd, 0x84, 0x41, 0x85, 0x41, 0x86, 0x41, 0xbc, 0x01, 0xc8, 0x01, 0xc8,
   0x01, 0xc8, 0x01, 0xb8, 0x02, 0x40, 0xfc, 0x3f};
