#define keysqrt_width 16
#define keysqrt_height 16
static unsigned char keysqrt_bits[] = {
   0xfc, 0x3f, 0x02, 0x40, 0x01, 0x80, 0xc1, 0xbf, 0x41, 0x80, 0x21, 0x80,
   0x21, 0x80, 0x21, 0x80, 0x15, 0x80, 0x1d, 0x80, 0x09, 0x80, 0x09, 0x80,
   0x01, 0x80, 0x01, 0x80, 0x02, 0x40, 0xfc, 0x3f};
