#define key_width 16
#define key_height 16
static unsigned char key_bits[] = {
   0xfc, 0x3f, 0x02, 0x40, 0x01, 0x80, 0x09, 0x90, 0x11, 0x88, 0x21, 0x84,
   0x41, 0x82, 0x81, 0x81, 0x81, 0x81, 0x41, 0x82, 0x21, 0x84, 0x11, 0x88,
   0x09, 0x90, 0x01, 0x80, 0x02, 0x40, 0xfc, 0x3f};
