#define leftarrow_width 16
#define leftarrow_height 16
#define leftarrow_x_hot 15
#define leftarrow_y_hot 15
static unsigned char leftarrow_bits[] = {
   0x00, 0x00, 0x00, 0x01, 0x80, 0x01, 0x40, 0x01, 0x20, 0x3f, 0x10, 0x60,
   0x08, 0x60, 0x04, 0x60, 0x04, 0x60, 0x08, 0x60, 0x10, 0x60, 0x20, 0x7f,
   0x40, 0x7f, 0x80, 0x03, 0x00, 0x03, 0x00, 0x00};
