#define line_width 21
#define line_height 21
static char line_bits[] = {
   0x00, 0x00, 0x00, 0x00, 0x00, 0x00, 0x04, 0x00, 0x00, 0x08, 0x00, 0x00,
   0x10, 0x00, 0x00, 0x20, 0x00, 0x00, 0x40, 0x00, 0x00, 0x80, 0x00, 0x00,
   0x00, 0x01, 0x00, 0x00, 0x02, 0x00, 0x00, 0x04, 0x00, 0x00, 0x08, 0x00,
   0x00, 0x10, 0x00, 0x00, 0x20, 0x00, 0x00, 0x40, 0x00, 0x00, 0x80, 0x00,
   0x00, 0x00, 0x01, 0x00, 0x00, 0x02, 0x00, 0x00, 0x04, 0x00, 0x00, 0x00,
   0x00, 0x00, 0x00};
