#define next_width 32
#define next_height 16
static unsigned char next_bits[] = {
   0xfc, 0xff, 0xff, 0x3f, 0x02, 0x00, 0x00, 0x40, 0x19, 0x0c, 0x00, 0x80,
   0x39, 0x0c, 0x00, 0x84, 0x79, 0x0c, 0x00, 0x84, 0x59, 0x0c, 0x00, 0x84,
   0xd9, 0x0c, 0x00, 0x9f, 0x99, 0x0c, 0x00, 0x84, 0x99, 0xcd, 0x89, 0x84,
   0x19, 0x2d, 0x52, 0x84, 0x19, 0xef, 0x23, 0x84, 0x19, 0x2e, 0x20, 0x84,
   0x19, 0x2e, 0x52, 0x94, 0x19, 0xcc, 0x89, 0x88, 0x02, 0x00, 0x00, 0x40,
   0xfc, 0xff, 0xff, 0x3f};
