#define opaque_width 16
#define opaque_height 16
static char opaque_bits[] = {
   0x00, 0x00, 0xfe, 0x07, 0xfe, 0x07, 0xfe, 0x07, 0xfe, 0x07, 0xfe, 0x07,
   0xfe, 0x07, 0xfe, 0x7f, 0xfe, 0x47, 0xfe, 0x47, 0xfe, 0x47, 0xfe, 0x47,
   0x20, 0x40, 0x20, 0x40, 0xe0, 0x7f, 0x00, 0x00};
