#define playback_width 21
#define playback_height 21
static unsigned char playback_bits[] = {
   0x00, 0x00, 0x00, 0x00, 0x00, 0x00, 0x00, 0x00, 0x06, 0x00, 0x80, 0x05,
   0x00, 0x40, 0x04, 0x00, 0x30, 0x04, 0x00, 0x08, 0x04, 0x00, 0x06, 0x04,
   0x00, 0x01, 0x04, 0xc0, 0x00, 0x04, 0x20, 0x00, 0x04, 0xc0, 0x00, 0x04,
   0x00, 0x01, 0x04, 0x00, 0x06, 0x04, 0x00, 0x08, 0x04, 0x00, 0x30, 0x04,
   0x00, 0x40, 0x04, 0x00, 0x80, 0x05, 0x00, 0x00, 0x06, 0x00, 0x00, 0x00,
   0x00, 0x00, 0x00};
