#define play_width 21
#define play_height 21
static unsigned char play_bits[] = {
   0x00, 0x00, 0x00, 0x00, 0x00, 0x00, 0x0c, 0x00, 0x00, 0x34, 0x00, 0x00,
   0x44, 0x00, 0x00, 0x84, 0x01, 0x00, 0x04, 0x02, 0x00, 0x04, 0x0c, 0x00,
   0x04, 0x10, 0x00, 0x04, 0x60, 0x00, 0x04, 0x80, 0x00, 0x04, 0x60, 0x00,
   0x04, 0x10, 0x00, 0x04, 0x0c, 0x00, 0x04, 0x02, 0x00, 0x84, 0x01, 0x00,
   0x44, 0x00, 0x00, 0x34, 0x00, 0x00, 0x0c, 0x00, 0x00, 0x00, 0x00, 0x00,
   0x00, 0x00, 0x00};
