#define prev_width 32
#define prev_height 16
static unsigned char prev_bits[] = {
   0xfc, 0xff, 0xff, 0x3f, 0x02, 0x00, 0x00, 0x40, 0xf9, 0x03, 0x00, 0x80,
   0xf9, 0x07, 0x00, 0x80, 0x19, 0x0c, 0x00, 0x80, 0x19, 0x0c, 0x00, 0x80,
   0x19, 0x0c, 0x00, 0x80, 0xf9, 0x27, 0xe0, 0xc4, 0xf9, 0x43, 0x17, 0xc5,
   0x19, 0xc0, 0x10, 0xc5, 0x19, 0x40, 0xf0, 0xa8, 0x19, 0x40, 0x10, 0xa8,
   0x19, 0x40, 0x10, 0xa9, 0x19, 0x40, 0xe0, 0x90, 0x02, 0x00, 0x00, 0x40,
   0xfc, 0xff, 0xff, 0x3f};
