#define rew_width 21
#define rew_height 21
static unsigned char rew_bits[] = {
   0x00, 0x00, 0x00, 0x00, 0x00, 0x00, 0x00, 0x20, 0x04, 0x00, 0x38, 0x07,
   0x00, 0xa4, 0x04, 0x00, 0x63, 0x04, 0x80, 0x20, 0x04, 0x60, 0x20, 0x04,
   0x10, 0x20, 0x04, 0x0c, 0x20, 0x04, 0x02, 0x20, 0x04, 0x0c, 0x20, 0x04,
   0x10, 0x20, 0x04, 0x60, 0x20, 0x04, 0x80, 0x20, 0x04, 0x00, 0x63, 0x04,
   0x00, 0xa4, 0x04, 0x00, 0x38, 0x07, 0x00, 0x20, 0x04, 0x00, 0x00, 0x00,
   0x00, 0x00, 0x00};
