#define rightarrow_width 16
#define rightarrow_height 16
#define rightarrow_x_hot 0
#define rightarrow_y_hot 0
static unsigned char rightarrow_bits[] = {
   0x01, 0x00, 0x80, 0x00, 0x80, 0x01, 0x80, 0x02, 0xfc, 0x04, 0x04, 0x08,
   0x04, 0x10, 0x04, 0x20, 0x04, 0x20, 0x04, 0x30, 0x04, 0x18, 0xfc, 0x0c,
   0xf8, 0x06, 0x80, 0x03, 0x80, 0x01, 0x80, 0x00};
