#define selectarrow_width 21
#define selectarrow_height 21
static char selectarrow_bits[] = {
   0x00, 0x00, 0x00, 0x00, 0x00, 0x00, 0x00, 0x00, 0x00, 0xe0, 0x00, 0x00,
   0xe0, 0x07, 0x00, 0xe0, 0x0c, 0x00, 0xe0, 0x01, 0x00, 0xa0, 0x03, 0x00,
   0x20, 0x07, 0x00, 0x20, 0x06, 0x00, 0x00, 0x0c, 0x00, 0x00, 0x1c, 0x00,
   0x00, 0x38, 0x00, 0x00, 0x30, 0x00, 0x00, 0x60, 0x00, 0x00, 0xe0, 0x00,
   0x00, 0xc0, 0x00, 0x00, 0x00, 0x00, 0x00, 0x00, 0x00, 0x00, 0x00, 0x00,
   0x00, 0x00, 0x00};
