#define star_width 16
#define star_height 16
static char star_bits[] = {
   0x00, 0x00, 0x80, 0x00, 0x80, 0x00, 0x88, 0x08, 0x90, 0x04, 0xa0, 0x02,
   0xc0, 0x01, 0xfe, 0x3f, 0xc0, 0x01, 0xa0, 0x02, 0x90, 0x04, 0x88, 0x08,
   0x80, 0x00, 0x80, 0x00, 0x00, 0x00, 0x00, 0x00};
