#define translucent_width 16
#define translucent_height 16
static char translucent_bits[] = {
   0x00, 0x00, 0xfe, 0x07, 0x02, 0x04, 0x02, 0x04, 0x02, 0x04, 0x02, 0x04,
   0x02, 0x04, 0xa2, 0x7e, 0x02, 0x44, 0x22, 0x44, 0x02, 0x44, 0xfe, 0x47,
   0x20, 0x40, 0x20, 0x40, 0xe0, 0x7f, 0x00, 0x00};
