#define uparrow_width 16
#define uparrow_height 16
#define uparrow_x_hot 0
#define uparrow_y_hot 15
static unsigned char uparrow_bits[] = {
   0x00, 0x00, 0x00, 0x00, 0x80, 0x01, 0x40, 0x02, 0x20, 0x04, 0x10, 0x08,
   0x08, 0x10, 0x04, 0x20, 0x1e, 0x78, 0x10, 0xf8, 0x10, 0x18, 0x10, 0x18,
   0x10, 0x18, 0xf0, 0x1f, 0xe0, 0x1f, 0x00, 0x00};
