#define zoomin_width 21
#define zoomin_height 21
static unsigned char zoomin_bits[] = {
   0x00, 0x00, 0x00, 0x00, 0x0e, 0x00, 0x00, 0x11, 0x00, 0xc0, 0x60, 0x00,
   0x20, 0x80, 0x00, 0x18, 0x00, 0x03, 0x04, 0x00, 0x04, 0x7e, 0xc0, 0x0f,
   0x42, 0x40, 0x08, 0x7e, 0xc0, 0x0f, 0x20, 0x80, 0x00, 0x10, 0x00, 0x01,
   0x10, 0x00, 0x01, 0x08, 0x00, 0x02, 0xf8, 0xff, 0x03, 0x08, 0x00, 0x02,
   0x08, 0x00, 0x02, 0x08, 0x00, 0x02, 0xf8, 0xff, 0x03, 0x00, 0x00, 0x00,
   0x00, 0x00, 0x00};
